<?xml version="1.0" encoding="UTF-8"?>
<svg version="1.1" xmlns="http://www.w3.org/2000/svg" width="297" height="76">
<path d="M0 0 C5.70237565 3.8780524 8.49094686 9.62262004 10.59375 16.015625 C11.0390625 18.38671875 11.0390625 18.38671875 11.0390625 25.38671875 C-3.1509375 25.38671875 -17.3409375 25.38671875 -31.9609375 25.38671875 C-30.3897044 39.9637803 -30.3897044 39.9637803 -21.8359375 49.82421875 C-16.00427464 52.99360074 -10.47383092 52.98854308 -3.9609375 52.38671875 C1.04221397 50.85400727 4.0964271 48.72323407 7.0390625 44.38671875 C8.0290625 44.38671875 9.0190625 44.38671875 10.0390625 44.38671875 C8.73021148 49.94933559 4.65020279 52.50133195 0.0390625 55.38671875 C-7.40030688 57.86650854 -17.45314776 57.64559412 -24.5859375 54.32421875 C-31.82803162 49.99113386 -35.69987167 44.43053421 -37.9609375 36.38671875 C-39.64973878 25.57419634 -38.52471305 15.38474219 -31.9609375 6.38671875 C-23.86558281 -3.06729687 -11.14811518 -5.61345022 0 0 Z M-24.6484375 4.63671875 C-29.82789014 10.79606783 -30.91019817 13.98080412 -31.9609375 22.38671875 C-19.7509375 22.38671875 -7.5409375 22.38671875 5.0390625 22.38671875 C3.31960964 10.42497704 3.31960964 10.42497704 -3.1484375 2.07421875 C-10.71523867 -2.46586195 -18.00624998 -0.92418243 -24.6484375 4.63671875 Z " fill="#FFFFFF" transform="translate(166.9609375,19.61328125)"/>
<path d="M0 0 C8.58 0 17.16 0 26 0 C26 0.66 26 1.32 26 2 C23.03 2.66 20.06 3.32 17 4 C18.6153434 8.19595768 20.23288224 12.39106092 21.85229492 16.58544922 C22.40072269 18.0067765 22.94859222 19.42831933 23.49584961 20.85009766 C24.29126728 22.91628801 25.08845206 24.98178377 25.88671875 27.046875 C26.1478244 27.72302856 26.40893005 28.39918213 26.677948 29.0958252 C28.71215081 34.3324433 30.87993214 39.50456653 33.12817383 44.65332031 C34 47 34 47 34 50 C34.66 50 35.32 50 36 50 C36.09603516 49.35361572 36.19207031 48.70723145 36.29101562 48.04125977 C37.24143808 43.96432707 38.78009487 40.21636028 40.34375 36.33984375 C40.67290405 35.51295547 41.00205811 34.6860672 41.34118652 33.8341217 C42.39011209 31.20029224 43.44461383 28.56874664 44.5 25.9375 C45.55478812 23.30245362 46.60831232 20.66692515 47.65881348 18.03016663 C48.31168919 16.39193479 48.96710895 14.75471398 49.62536621 13.11863708 C49.92237427 12.37428909 50.21938232 11.6299411 50.52539062 10.86303711 C50.7866272 10.21193466 51.04786377 9.56083221 51.3170166 8.88999939 C52.01097433 6.96963108 52.50476436 4.98094256 53 3 C49.7 2.67 46.4 2.34 43 2 C43 1.34 43 0.68 43 0 C50.92 0 58.84 0 67 0 C67 0.66 67 1.32 67 2 C66.41992188 2.00515625 65.83984375 2.0103125 65.2421875 2.015625 C62.48137592 2.28897268 60.51791092 2.81278167 58 4 C51.31001211 13.25835818 47.84784641 26.05984785 43.6875 36.625 C42.59801602 39.37745654 41.50705109 42.12932088 40.41548157 44.88095093 C39.74172044 46.58087841 39.06945254 48.28139867 38.39884949 49.98257446 C36.10745233 55.78509534 36.10745233 55.78509534 35 58 C34.01 58 33.02 58 32 58 C30.20265432 53.85661092 28.41228355 49.71023711 26.625 45.5625 C26.35599884 44.93917786 26.08699768 44.31585571 25.80984497 43.67364502 C21.38814779 33.41467666 17.17842724 23.09190182 13.21142578 12.64672852 C12.83099121 11.66760498 12.45055664 10.68848145 12.05859375 9.6796875 C11.73173584 8.82101074 11.40487793 7.96233398 11.06811523 7.07763672 C10.04920729 4.68153854 10.04920729 4.68153854 7 3 C4.67612053 2.60612212 2.34206251 2.26513915 0 2 C0 1.34 0 0.68 0 0 Z " fill="#FFFFFF" transform="translate(0,18)"/>
<path d="M0 0 C0 1.98 0 3.96 0 6 C-0.65226562 6.09796875 -1.30453125 6.1959375 -1.9765625 6.296875 C-11.0948307 7.85693269 -16.57475547 11.54845932 -22 19 C-24.41250185 22.72290144 -24.22994399 26.02705687 -24.1953125 30.390625 C-24.19106766 31.44754547 -24.19106766 31.44754547 -24.18673706 32.52581787 C-24.17557801 34.7673876 -24.15048193 37.00855186 -24.125 39.25 C-24.11496464 40.77343171 -24.10583976 42.29686971 -24.09765625 43.8203125 C-24.07565291 47.54700586 -24.04115272 51.27346333 -24 55 C-20.04 55.33 -16.08 55.66 -12 56 C-12 56.99 -12 57.98 -12 59 C-21.57 59 -31.14 59 -41 59 C-41 58.01 -41 57.02 -41 56 C-37.7 56 -34.4 56 -31 56 C-31.33 38.84 -31.66 21.68 -32 4 C-35.3 3.67 -38.6 3.34 -42 3 C-42 2.34 -42 1.68 -42 1 C-36.39 1 -30.78 1 -25 1 C-24.67 5.95 -24.34 10.9 -24 16 C-23.01 14.453125 -22.02 12.90625 -21 11.3125 C-15.62690152 3.61796141 -9.453034 -0.26258428 0 0 Z " fill="#FFFFFF" transform="translate(240,17)"/>
<path d="M0 0 C1.65 0 3.3 0 5 0 C5 5.94 5 11.88 5 18 C12.59 18 20.18 18 28 18 C28 18.66 28 19.32 28 20 C20.41 20 12.82 20 5 20 C5.07402696 26.31781817 5.15688351 32.63422774 5.26245117 38.95141602 C5.29567746 41.09977898 5.32371653 43.24822875 5.34643555 45.39672852 C5.38002331 48.48751776 5.43234221 51.57751312 5.48828125 54.66796875 C5.49467117 55.62648239 5.5010611 56.58499603 5.50764465 57.57255554 C5.61556302 62.48241588 5.7141962 66.07166916 9 70 C12.75456567 72.50304378 14.54745934 72.45280074 19 72 C22.23761134 70.14749996 22.23761134 70.14749996 25 68 C25.99 67.67 26.98 67.34 28 67 C27.66032174 70.17033042 27.00130809 70.99882607 24.5625 73.1875 C19.30538552 76.90594683 14.30030307 76.56002694 8 76 C4.48563648 74.58192349 2.76157187 73.6001909 1.11601257 70.14259338 C-0.94204971 64.21593506 -1.40110369 58.9591354 -1.29296875 52.71484375 C-1.28872391 51.77314835 -1.28447906 50.83145294 -1.28010559 49.86122131 C-1.26346216 46.88634282 -1.22583772 43.91216986 -1.1875 40.9375 C-1.1724346 38.9069109 -1.15874946 36.87631107 -1.14648438 34.84570312 C-1.11360578 29.89686819 -1.0619244 24.94855325 -1 20 C-4.3 20 -7.6 20 -11 20 C-11 19.34 -11 18.68 -11 18 C-7.7 18 -4.4 18 -1 18 C-0.505 9.09 -0.505 9.09 0 0 Z " fill="#FFFFFF" transform="translate(269,0)"/>
<path d="M0 0 C5.61 0 11.22 0 17 0 C17.33 17.82 17.66 35.64 18 54 C21.3 54.33 24.6 54.66 28 55 C28 55.99 28 56.98 28 58 C19.09 58 10.18 58 1 58 C1 57.01 1 56.02 1 55 C4.63 55 8.26 55 12 55 C12 37.84 12 20.68 12 3 C8.04 2.67 4.08 2.34 0 2 C0 1.34 0 0.68 0 0 Z " fill="#FFFFFF" transform="translate(82,18)"/>
</svg>
